{"accessors":[{"bufferView":0,"componentType":5123,"count":12702,"type":"SCALAR"},{"bufferView":1,"componentType":5126,"count":4080,"type":"VEC3","min":[-1,-1,-1],"max":[1,1,1]},{"bufferView":2,"componentType":5126,"count":4080,"type":"VEC3","min":[-0.5063465237617493,-0.6874690055847168,-2.4832334518432617],"max":[-0.08300581574440002,0.6874690055847168,0.5052706599235535]},{"bufferView":3,"componentType":5123,"count":84,"type":"SCALAR"},{"bufferView":4,"componentType":5126,"count":34,"type":"VEC3","min":[0,-4.6781604368106855e-8,1],"max":[0,8.172627019575884e-8,1]},{"bufferView":5,"componentType":5126,"count":34,"type":"VEC3","min":[-0.5068604350090027,-0.3277839124202728,0.426347017288208],"max":[-0.23476703464984894,0.3277839124202728,0.426347017288208]},{"bufferView":6,"componentType":5123,"count":1344,"type":"SCALAR"},{"bufferView":7,"componentType":5126,"count":264,"type":"VEC3","min":[-1,-1,-1],"max":[1,1,1]},{"bufferView":8,"componentType":5126,"count":264,"type":"VEC3","min":[-0.4996909201145172,-0.6570186614990234,0.2584836483001709],"max":[-0.31769639253616333,0.6570186614990234,0.4237886369228363]},{"bufferView":9,"componentType":5123,"count":2544,"type":"SCALAR"},{"bufferView":10,"componentType":5126,"count":432,"type":"VEC3","min":[-0.9088990688323975,-0.9127868413925171,-1],"max":[0.9084243178367615,0.9127868413925171,1]},{"bufferView":11,"componentType":5126,"count":432,"type":"VEC3","min":[-0.4672769606113434,-0.5918469429016113,0.40109869837760925],"max":[-0.3196448087692261,0.5918469429016113,0.43458297848701477]},{"bufferView":12,"componentType":5123,"count":1176,"type":"SCALAR"},{"bufferView":13,"componentType":5126,"count":770,"type":"VEC3","min":[-0.7374387383460999,-1,-0.9990383982658386],"max":[0.7412298321723938,1,0.7412359118461609]},{"bufferView":14,"componentType":5126,"count":770,"type":"VEC3","min":[-0.782658576965332,-0.5261734127998352,-0.5552683472633362],"max":[-0.7141944169998169,0.5261734127998352,-0.49364376068115234]},{"bufferView":15,"componentType":5123,"count":1704,"type":"SCALAR"},{"bufferView":16,"componentType":5126,"count":288,"type":"VEC3","min":[-0.9516978859901428,-0.9489886164665222,-1],"max":[0.951698899269104,0.953460156917572,1]},{"bufferView":17,"componentType":5126,"count":288,"type":"VEC3","min":[-0.31541895866394043,-0.6177517175674438,0.4034043550491333],"max":[-0.268087774515152,0.6127108335494995,0.4224070906639099]},{"bufferView":18,"componentType":5123,"count":2556,"type":"SCALAR"},{"bufferView":19,"componentType":5126,"count":432,"type":"VEC3","min":[-0.9516993165016174,-0.9489890933036804,-1],"max":[0.9516990184783936,0.9534603953361511,1]},{"bufferView":20,"componentType":5126,"count":432,"type":"VEC3","min":[-0.5499154925346375,-0.6177517175674438,0.40079760551452637],"max":[-0.2614442706108093,0.6127108335494995,0.42501387000083923]},{"bufferView":21,"componentType":5123,"count":852,"type":"SCALAR"},{"bufferView":22,"componentType":5126,"count":144,"type":"VEC3","min":[-0.9516986608505249,-0.9489889740943909,-1],"max":[0.9514562487602234,0.953460693359375,0.9890975952148438]},{"bufferView":23,"componentType":5126,"count":144,"type":"VEC3","min":[-0.32176098227500916,-0.5098577737808228,0.40079760551452637],"max":[-0.2614443004131317,-0.4493512511253357,0.42501387000083923]},{"bufferView":24,"componentType":5123,"count":36,"type":"SCALAR"},{"bufferView":25,"componentType":5126,"count":24,"type":"VEC3","min":[-0.5186593532562256,-0.18387046456336975,-1],"max":[0.5186630487442017,0.184788778424263,1]},{"bufferView":26,"componentType":5126,"count":24,"type":"VEC3","min":[-1.1247965097427368,-0.05204296484589577,0.4235747754573822],"max":[-1.1013273000717163,0.031818438321352005,0.4247783124446869]},{"bufferView":27,"componentType":5123,"count":210,"type":"SCALAR"},{"bufferView":28,"componentType":5126,"count":112,"type":"VEC3","min":[-0.9267449378967285,-0.48416954278945923,-0.9252934455871582],"max":[0.928083598613739,0.89382004737854,0.9252932071685791]},{"bufferView":29,"componentType":5126,"count":112,"type":"VEC3","min":[0.13727203011512756,0.08938898146152496,-0.02386287972331047],"max":[0.23741672933101654,0.2918194532394409,0.054030146449804306]},{"bufferView":30,"componentType":5123,"count":4242,"type":"SCALAR"},{"bufferView":31,"componentType":5126,"count":1624,"type":"VEC3","min":[-1,-1,-1],"max":[1,1,1]},{"bufferView":32,"componentType":5126,"count":1624,"type":"VEC3","min":[-0.2379792183637619,-0.5126804709434509,-1.9682945013046265],"max":[0.24282443523406982,0.4395701587200165,0.5583559274673462]},{"bufferView":33,"componentType":5123,"count":120,"type":"SCALAR"},{"bufferView":34,"componentType":5126,"count":48,"type":"VEC3","min":[-0.019439134746789932,0.24018116295337677,0.9705334305763245],"max":[-0.019439077004790306,0.2401813566684723,0.9705334901809692]},{"bufferView":35,"componentType":5126,"count":48,"type":"VEC3","min":[-0.17250248789787292,0.11788125336170197,-0.12810662388801575],"max":[-0.07758822292089462,0.19381311535835266,-0.10931550711393356]},{"bufferView":36,"componentType":5123,"count":38418,"type":"SCALAR"},{"bufferView":37,"componentType":5126,"count":9145,"type":"VEC3","min":[-0.9999997019767761,-1,-0.9999934434890747],"max":[1,1,0.9999785423278809]},{"bufferView":38,"componentType":5126,"count":9145,"type":"VEC3","min":[0.04479452222585678,-0.009999999776482582,-0.5249280333518982],"max":[4.3342814445495605,0.009999999776482582,0.010000000707805157]},{"bufferView":39,"componentType":5123,"count":93924,"type":"SCALAR"},{"bufferView":40,"componentType":5126,"count":21945,"type":"VEC3","min":[-1,-1,-1],"max":[1,1,1]},{"bufferView":41,"componentType":5126,"count":21945,"type":"VEC3","min":[0.04762347787618637,-0.009999999776482582,-0.5436444282531738],"max":[1.968124508857727,0.009999999776482582,0.7189489603042603]},{"bufferView":42,"componentType":5123,"count":19008,"type":"SCALAR"},{"bufferView":43,"componentType":5126,"count":5583,"type":"VEC3","min":[-1,-1,-1],"max":[1,1,1]},{"bufferView":44,"componentType":5126,"count":5583,"type":"VEC3","min":[-1.1722941398620605,-0.65968918800354,-2.441338539123535],"max":[-0.06962700933218002,0.65968918800354,0.4303467273712158]},{"bufferView":45,"componentType":5123,"count":16986,"type":"SCALAR"},{"bufferView":46,"componentType":5126,"count":4609,"type":"VEC3","min":[-1,-1,-1],"max":[1,1,1]},{"bufferView":47,"componentType":5126,"count":4609,"type":"VEC3","min":[-1.1722941398620605,-0.6625759601593018,-2.441338539123535],"max":[-0.07221219688653946,0.6625759601593018,0.4303467273712158]},{"bufferView":48,"componentType":5123,"count":393,"type":"SCALAR"},{"bufferView":49,"componentType":5126,"count":112,"type":"VEC3","min":[-0.9988795518875122,-1,-1],"max":[1,0.7858055233955383,0.9968910813331604]},{"bufferView":50,"componentType":5126,"count":112,"type":"VEC3","min":[-0.6793020367622375,-0.5725834369659424,-0.5075857043266296],"max":[-0.5576879978179932,0.5725834369659424,0.42364004254341125]},{"bufferView":51,"componentType":5123,"count":648,"type":"SCALAR"},{"bufferView":52,"componentType":5126,"count":240,"type":"VEC3","min":[-0.8030909299850464,-0.841798722743988,-0.7664743065834045],"max":[0.9940919280052185,0.8417986035346985,0.7477467656135559]},{"bufferView":53,"componentType":5126,"count":240,"type":"VEC3","min":[-0.45016756653785706,-0.701620876789093,-0.40583884716033936],"max":[-0.07196585088968277,0.701620876789093,0.3856900930404663]},{"bufferView":54,"componentType":5123,"count":648,"type":"SCALAR"},{"bufferView":55,"componentType":5126,"count":240,"type":"VEC3","min":[-0.8039476871490479,-0.8424615859985352,-0.7664743065834045],"max":[0.9930863976478577,0.8424614667892456,0.7477474212646484]},{"bufferView":56,"componentType":5126,"count":240,"type":"VEC3","min":[-0.44370928406715393,-0.7035983800888062,-0.41155683994293213],"max":[-0.07196585088968277,0.7035983800888062,0.39203375577926636]},{"bufferView":57,"componentType":5123,"count":3474,"type":"SCALAR"},{"bufferView":58,"componentType":5126,"count":860,"type":"VEC3","min":[-1,-0.9942011833190918,-1],"max":[1,1,1]},{"bufferView":59,"componentType":5126,"count":860,"type":"VEC3","min":[-1.2610386610031128,-0.5469733476638794,-2.447206497192383],"max":[-1.1031744480133057,0.5469733476638794,-0.7087006568908691]},{"bufferView":60,"componentType":5123,"count":384,"type":"SCALAR"},{"bufferView":61,"componentType":5126,"count":124,"type":"VEC3","min":[-0.48775091767311096,-0.9965530633926392,-1],"max":[0,0.9965530633926392,0.8983985185623169]},{"bufferView":62,"componentType":5126,"count":124,"type":"VEC3","min":[-1.1504802703857422,-0.5971966981887817,-2.441338539123535],"max":[-0.6772693991661072,0.5971966981887817,-0.5802955627441406]},{"bufferView":63,"componentType":5123,"count":1104,"type":"SCALAR"},{"bufferView":64,"componentType":5126,"count":342,"type":"VEC3","min":[-1,-0.9999738335609436,-1],"max":[1,0.9999738335609436,0.8421740531921387]},{"bufferView":65,"componentType":5126,"count":342,"type":"VEC3","min":[-1.1864783763885498,-0.322849303483963,-2.441338539123535],"max":[-0.25537556409835815,0.322849303483963,-2.4238085746765137]},{"bufferView":66,"componentType":5123,"count":648,"type":"SCALAR"},{"bufferView":67,"componentType":5126,"count":174,"type":"VEC3","min":[-1,-0.9925833940505981,0],"max":[1,0.9923170804977417,1]},{"bufferView":68,"componentType":5126,"count":174,"type":"VEC3","min":[-1.1864783763885498,-0.322849303483963,-2.441338539123535],"max":[-0.25537556409835815,0.322849303483963,-2.4325294494628906]},{"bufferView":69,"componentType":5123,"count":3840,"type":"SCALAR"},{"bufferView":70,"componentType":5126,"count":1544,"type":"VEC3","min":[-1,-1,-1],"max":[1,1,1]},{"bufferView":71,"componentType":5126,"count":1544,"type":"VEC3","min":[-1.1811137199401855,-0.7353223562240601,-2.4534308910369873],"max":[-0.259427547454834,0.7353223562240601,-0.36281850934028625]},{"bufferView":72,"componentType":5123,"count":6,"type":"SCALAR"},{"bufferView":73,"componentType":5126,"count":4,"type":"VEC3","min":[0,-0.000009071700333151966,1],"max":[0,0.000009071700333151966,1]},{"bufferView":74,"componentType":5126,"count":4,"type":"VEC3","min":[-0.4649196267127991,0.347760945558548,-2.4464378356933594],"max":[-0.3762349486351013,0.5850649476051331,-2.4464378356933594]},{"bufferView":75,"componentType":5123,"count":348,"type":"SCALAR"},{"bufferView":76,"componentType":5126,"count":230,"type":"VEC3","min":[-0.9450685977935791,-0.7915573716163635,-0.9040541648864746],"max":[0.8955747485160828,0.9937659502029419,0.9155985713005066]},{"bufferView":77,"componentType":5126,"count":230,"type":"VEC3","min":[-0.8880143761634827,-0.30701225996017456,-0.5942264795303345],"max":[-0.7825586199760437,0.5000376105308533,-0.5407596826553345]},{"bufferView":78,"componentType":5123,"count":432,"type":"SCALAR"},{"bufferView":79,"componentType":5126,"count":282,"type":"VEC3","min":[-0.9989821314811707,-1,-0.9994608759880066],"max":[0.9989821314811707,1,0.9994608759880066]},{"bufferView":80,"componentType":5126,"count":282,"type":"VEC3","min":[-0.12589851021766663,-0.6391669511795044,-2.330941915512085],"max":[0.12164092063903809,0.6508219242095947,-0.3910973072052002]},{"bufferView":81,"componentType":5123,"count":54,"type":"SCALAR"},{"bufferView":82,"componentType":5126,"count":24,"type":"VEC3","min":[0,-0.1949339210987091,-1],"max":[4.3704737606731214e-9,0.19493411481380463,0.9808164834976196]},{"bufferView":83,"componentType":5126,"count":24,"type":"VEC3","min":[-1.1273983716964722,-0.7280241847038269,-0.7673442363739014],"max":[-0.6550203561782837,0.7280241847038269,-0.6358485221862793]},{"bufferView":84,"componentType":5123,"count":72,"type":"SCALAR"},{"bufferView":85,"componentType":5126,"count":48,"type":"VEC3","min":[-0.45232710242271423,0,0.8918521404266357],"max":[-0.44727689027786255,0,0.8943955302238464]},{"bufferView":86,"componentType":5126,"count":48,"type":"VEC3","min":[-0.7816518545150757,-0.5261734127998352,-0.5551139712333679],"max":[-0.7048933506011963,0.5261734127998352,-0.5163853168487549]},{"bufferView":87,"componentType":5123,"count":960,"type":"SCALAR"},{"bufferView":88,"componentType":5126,"count":640,"type":"VEC3","min":[-0.9921436905860901,-0.992537260055542,-1],"max":[0.9921436905860901,0.9925371408462524,1]},{"bufferView":89,"componentType":5126,"count":640,"type":"VEC3","min":[-1.0730897188186646,-0.595625638961792,-1.2224832773208618],"max":[-0.6816547513008118,0.595625638961792,-0.6031107306480408]},{"bufferView":90,"componentType":5123,"count":1368,"type":"SCALAR"},{"bufferView":91,"componentType":5126,"count":884,"type":"VEC3","min":[-0.999999463558197,-0.999424159526825,-1],"max":[0.9999955296516418,0.999424159526825,1]},{"bufferView":92,"componentType":5126,"count":884,"type":"VEC3","min":[-1.1504802703857422,-0.6010070443153381,-2.4588394165039062],"max":[-0.6925122141838074,0.6010070443153381,-0.5747650861740112]},{"bufferView":93,"componentType":5123,"count":1344,"type":"SCALAR"},{"bufferView":94,"componentType":5126,"count":678,"type":"VEC3","min":[-1,-1,-1],"max":[1,1,1]},{"bufferView":95,"componentType":5126,"count":678,"type":"VEC3","min":[-1.1504802703857422,-0.5997517108917236,-2.4588394165039062],"max":[-0.7024331092834473,0.5997517108917236,-0.5747650861740112]},{"bufferView":96,"componentType":5123,"count":2220,"type":"SCALAR"},{"bufferView":97,"componentType":5126,"count":1066,"type":"VEC3","min":[-1,-1,-1],"max":[1,1,1]},{"bufferView":98,"componentType":5126,"count":1066,"type":"VEC3","min":[-0.7181826829910278,-0.021102627739310265,-0.012781945988535881],"max":[0.06809189915657043,0.042984794825315475,0.004534578882157803]},{"bufferView":99,"componentType":5123,"count":54,"type":"SCALAR"},{"bufferView":100,"componentType":5126,"count":30,"type":"VEC3","min":[-0.0019858090672641993,-1,-0.9999980330467224],"max":[1,1,0.9999980330467224]},{"bufferView":101,"componentType":5126,"count":30,"type":"VEC3","min":[-0.5492380261421204,-0.12718833982944489,0.43016520142555237],"max":[-0.50630122423172,0.12718833982944489,0.432226300239563]},{"bufferView":102,"componentType":5123,"count":336,"type":"SCALAR"},{"bufferView":103,"componentType":5126,"count":121,"type":"VEC3","min":[-0.947490930557251,-1,-0.9965522289276123],"max":[0.9961685538291931,1,1]},{"bufferView":104,"componentType":5126,"count":121,"type":"VEC3","min":[-0.5561204552650452,-0.13291919231414795,0.42036619782447815],"max":[-0.49466472864151,0.13291919231414795,0.43119001388549805]},{"bufferView":105,"componentType":5123,"count":276,"type":"SCALAR"},{"bufferView":106,"componentType":5126,"count":168,"type":"VEC3","min":[-1,-0.9953477382659912,-0.9999982118606567],"max":[1,0.995386004447937,0.9999974370002747]},{"bufferView":107,"componentType":5126,"count":168,"type":"VEC3","min":[0.08866053819656372,0.007456816732883453,-0.10493242740631104],"max":[0.7419543862342834,0.23610521852970123,0.12371528148651123]},{"bufferView":108,"componentType":5123,"count":9150,"type":"SCALAR"},{"bufferView":109,"componentType":5126,"count":2369,"type":"VEC3","min":[-1,-1,-1],"max":[1,1,0.9998108148574829]},{"bufferView":110,"componentType":5126,"count":2369,"type":"VEC3","min":[-0.452304869890213,-0.6538218855857849,-2.441338539123535],"max":[0.017067864537239075,0.6538218855857849,0.38828083872795105]},{"bufferView":111,"componentType":5123,"count":120,"type":"SCALAR"},{"bufferView":112,"componentType":5126,"count":72,"type":"VEC3","min":[-1,-1,-0.8660259246826172],"max":[1,1,0.8660259246826172]},{"bufferView":113,"componentType":5126,"count":72,"type":"VEC3","min":[-0.025980819016695023,-0.01500004529953003,-0.030000030994415283],"max":[0.025980789214372635,0.01500004529953003,1.9660403728485107]},{"bufferView":114,"componentType":5123,"count":1350,"type":"SCALAR"},{"bufferView":115,"componentType":5126,"count":468,"type":"VEC3","min":[-1,-1,-1],"max":[1,1,1]},{"bufferView":116,"componentType":5126,"count":468,"type":"VEC3","min":[-0.9063339829444885,7.541844367980957,17.855026245117188],"max":[2.473494291305542,11.040290832519531,18.903623580932617]},{"bufferView":117,"componentType":5123,"count":2844,"type":"SCALAR"},{"bufferView":118,"componentType":5126,"count":922,"type":"VEC3","min":[-1,-1,-0.964866042137146],"max":[1,1,1]},{"bufferView":119,"componentType":5126,"count":922,"type":"VEC3","min":[-4.056238651275635,4.485456466674805,16.60976219177246],"max":[6.07914400100708,14.126524925231934,19.436979293823242]},{"bufferView":120,"componentType":5123,"count":14832,"type":"SCALAR"},{"bufferView":121,"componentType":5126,"count":6350,"type":"VEC3","min":[-1,-1,-1],"max":[1,1,1]},{"bufferView":122,"componentType":5126,"count":6350,"type":"VEC3","min":[-7.572196006774902,1.1409664154052734,13.763724327087402],"max":[9.595099449157715,17.47100067138672,19.86948585510254]},{"bufferView":123,"componentType":5123,"count":1350,"type":"SCALAR"},{"bufferView":124,"componentType":5126,"count":468,"type":"VEC3","min":[-1,-1,-1],"max":[1,1,1]},{"bufferView":125,"componentType":5126,"count":468,"type":"VEC3","min":[-0.9063339829444885,7.541844367980957,17.855026245117188],"max":[2.473494291305542,11.040290832519531,18.903623580932617]},{"bufferView":126,"componentType":5123,"count":2844,"type":"SCALAR"},{"bufferView":127,"componentType":5126,"count":922,"type":"VEC3","min":[-1,-1,-0.964866042137146],"max":[1,1,1]},{"bufferView":128,"componentType":5126,"count":922,"type":"VEC3","min":[-4.056238651275635,4.485456466674805,16.60976219177246],"max":[6.07914400100708,14.126524925231934,19.436979293823242]},{"bufferView":129,"componentType":5123,"count":14832,"type":"SCALAR"},{"bufferView":130,"componentType":5126,"count":6350,"type":"VEC3","min":[-1,-1,-1],"max":[1,1,1]},{"bufferView":131,"componentType":5126,"count":6350,"type":"VEC3","min":[-7.572196006774902,1.1409626007080078,13.763724327087402],"max":[9.595099449157715,17.470996856689453,19.86948585510254]},{"bufferView":132,"componentType":5123,"count":1350,"type":"SCALAR"},{"bufferView":133,"componentType":5126,"count":468,"type":"VEC3","min":[-1,-1,-1],"max":[1,1,1]},{"bufferView":134,"componentType":5126,"count":468,"type":"VEC3","min":[-0.9063339829444885,7.541844367980957,17.855026245117188],"max":[2.473494291305542,11.040290832519531,18.903623580932617]},{"bufferView":135,"componentType":5123,"count":2844,"type":"SCALAR"},{"bufferView":136,"componentType":5126,"count":922,"type":"VEC3","min":[-1,-1,-0.964866042137146],"max":[1,1,1]},{"bufferView":137,"componentType":5126,"count":922,"type":"VEC3","min":[-4.056238651275635,4.485456466674805,16.60976219177246],"max":[6.07914400100708,14.126524925231934,19.436979293823242]},{"bufferView":138,"componentType":5123,"count":14832,"type":"SCALAR"},{"bufferView":139,"componentType":5126,"count":6350,"type":"VEC3","min":[-1,-1,-1],"max":[1,1,1]},{"bufferView":140,"componentType":5126,"count":6350,"type":"VEC3","min":[-7.572195053100586,1.1409626007080078,13.763716697692871],"max":[9.595100402832031,17.470996856689453,19.869478225708008]},{"bufferView":141,"componentType":5123,"count":1350,"type":"SCALAR"},{"bufferView":142,"componentType":5126,"count":468,"type":"VEC3","min":[-1,-1,-1],"max":[1,1,1]},{"bufferView":143,"componentType":5126,"count":468,"type":"VEC3","min":[-0.9063339829444885,7.541844367980957,17.855026245117188],"max":[2.473494291305542,11.040290832519531,18.903623580932617]},{"bufferView":144,"componentType":5123,"count":2844,"type":"SCALAR"},{"bufferView":145,"componentType":5126,"count":922,"type":"VEC3","min":[-1,-1,-0.964866042137146],"max":[1,1,1]},{"bufferView":146,"componentType":5126,"count":922,"type":"VEC3","min":[-4.056238651275635,4.485456466674805,16.60976219177246],"max":[6.07914400100708,14.126524925231934,19.436979293823242]},{"bufferView":147,"componentType":5123,"count":14832,"type":"SCALAR"},{"bufferView":148,"componentType":5126,"count":6350,"type":"VEC3","min":[-1,-1,-1],"max":[1,1,1]},{"bufferView":149,"componentType":5126,"count":6350,"type":"VEC3","min":[-7.572195053100586,1.1409626007080078,13.763716697692871],"max":[9.595100402832031,17.470996856689453,19.869478225708008]},{"bufferView":150,"componentType":5123,"count":336,"type":"SCALAR"},{"bufferView":151,"componentType":5126,"count":216,"type":"VEC3","min":[-1,-1,-0.9789435863494873],"max":[1,1,0.9789453148841858]},{"bufferView":152,"componentType":5126,"count":216,"type":"VEC3","min":[-0.06636703014373779,-0.01796412654221058,-0.09425707161426544],"max":[0.06636686623096466,0.037875160574913025,0.08668790757656097]}],"asset":{"extras":{"author":"kekis69 (https://sketchfab.com/kekis69)","license":"CC-BY-4.0 (http://creativecommons.org/licenses/by/4.0/)","source":"https://sketchfab.com/3d-models/land-rover-defender-90-lowpoly-88e5f30687ec4d508cebafa876e014d6","title":"Land Rover Defender 90 Lowpoly"},"generator":"Sketchfab-14.86.0","version":"2.0"},"bufferViews":[{"buffer":0,"byteOffset":0,"byteLength":25404,"target":34963},{"buffer":0,"byteOffset":25404,"byteLength":48960,"target":34962},{"buffer":0,"byteOffset":74364,"byteLength":48960,"target":34962},{"buffer":0,"byteOffset":123324,"byteLength":168,"target":34963},{"buffer":0,"byteOffset":123492,"byteLength":408,"target":34962},{"buffer":0,"byteOffset":123900,"byteLength":408,"target":34962},{"buffer":0,"byteOffset":124308,"byteLength":2688,"target":34963},{"buffer":0,"byteOffset":126996,"byteLength":3168,"target":34962},{"buffer":0,"byteOffset":130164,"byteLength":3168,"target":34962},{"buffer":0,"byteOffset":133332,"byteLength":5088,"target":34963},{"buffer":0,"byteOffset":138420,"byteLength":5184,"target":34962},{"buffer":0,"byteOffset":143604,"byteLength":5184,"target":34962},{"buffer":0,"byteOffset":148788,"byteLength":2352,"target":34963},{"buffer":0,"byteOffset":151140,"byteLength":9240,"target":34962},{"buffer":0,"byteOffset":160380,"byteLength":9240,"target":34962},{"buffer":0,"byteOffset":169620,"byteLength":3408,"target":34963},{"buffer":0,"byteOffset":173028,"byteLength":3456,"target":34962},{"buffer":0,"byteOffset":176484,"byteLength":3456,"target":34962},{"buffer":0,"byteOffset":179940,"byteLength":5112,"target":34963},{"buffer":0,"byteOffset":185052,"byteLength":5184,"target":34962},{"buffer":0,"byteOffset":190236,"byteLength":5184,"target":34962},{"buffer":0,"byteOffset":195420,"byteLength":1704,"target":34963},{"buffer":0,"byteOffset":197124,"byteLength":1728,"target":34962},{"buffer":0,"byteOffset":198852,"byteLength":1728,"target":34962},{"buffer":0,"byteOffset":200580,"byteLength":72,"target":34963},{"buffer":0,"byteOffset":200652,"byteLength":288,"target":34962},{"buffer":0,"byteOffset":200940,"byteLength":288,"target":34962},{"buffer":0,"byteOffset":201228,"byteLength":420,"target":34963},{"buffer":0,"byteOffset":201648,"byteLength":1344,"target":34962},{"buffer":0,"byteOffset":202992,"byteLength":1344,"target":34962},{"buffer":0,"byteOffset":204336,"byteLength":8484,"target":34963},{"buffer":0,"byteOffset":212820,"byteLength":19488,"target":34962},{"buffer":0,"byteOffset":232308,"byteLength":19488,"target":34962},{"buffer":0,"byteOffset":251796,"byteLength":240,"target":34963},{"buffer":0,"byteOffset":252036,"byteLength":576,"target":34962},{"buffer":0,"byteOffset":252612,"byteLength":576,"target":34962},{"buffer":0,"byteOffset":253188,"byteLength":76836,"target":34963},{"buffer":0,"byteOffset":330024,"byteLength":109740,"target":34962},{"buffer":0,"byteOffset":439764,"byteLength":109740,"target":34962},{"buffer":0,"byteOffset":549504,"byteLength":187848,"target":34963},{"buffer":0,"byteOffset":737352,"byteLength":263340,"target":34962},{"buffer":0,"byteOffset":1000692,"byteLength":263340,"target":34962},{"buffer":0,"byteOffset":1264032,"byteLength":38016,"target":34963},{"buffer":0,"byteOffset":1302048,"byteLength":66996,"target":34962},{"buffer":0,"byteOffset":1369044,"byteLength":66996,"target":34962},{"buffer":0,"byteOffset":1436040,"byteLength":33972,"target":34963},{"buffer":0,"byteOffset":1470012,"byteLength":55308,"target":34962},{"buffer":0,"byteOffset":1525320,"byteLength":55308,"target":34962},{"buffer":0,"byteOffset":1580628,"byteLength":786,"target":34963},{"buffer":0,"byteOffset":1581416,"byteLength":1344,"target":34962},{"buffer":0,"byteOffset":1582760,"byteLength":1344,"target":34962},{"buffer":0,"byteOffset":1584104,"byteLength":1296,"target":34963},{"buffer":0,"byteOffset":1585400,"byteLength":2880,"target":34962},{"buffer":0,"byteOffset":1588280,"byteLength":2880,"target":34962},{"buffer":0,"byteOffset":1591160,"byteLength":1296,"target":34963},{"buffer":0,"byteOffset":1592456,"byteLength":2880,"target":34962},{"buffer":0,"byteOffset":1595336,"byteLength":2880,"target":34962},{"buffer":0,"byteOffset":1598216,"byteLength":6948,"target":34963},{"buffer":0,"byteOffset":1605164,"byteLength":10320,"target":34962},{"buffer":0,"byteOffset":1615484,"byteLength":10320,"target":34962},{"buffer":0,"byteOffset":1625804,"byteLength":768,"target":34963},{"buffer":0,"byteOffset":1626572,"byteLength":1488,"target":34962},{"buffer":0,"byteOffset":1628060,"byteLength":1488,"target":34962},{"buffer":0,"byteOffset":1629548,"byteLength":2208,"target":34963},{"buffer":0,"byteOffset":1631756,"byteLength":4104,"target":34962},{"buffer":0,"byteOffset":1635860,"byteLength":4104,"target":34962},{"buffer":0,"byteOffset":1639964,"byteLength":1296,"target":34963},{"buffer":0,"byteOffset":1641260,"byteLength":2088,"target":34962},{"buffer":0,"byteOffset":1643348,"byteLength":2088,"target":34962},{"buffer":0,"byteOffset":1645436,"byteLength":7680,"target":34963},{"buffer":0,"byteOffset":1653116,"byteLength":18528,"target":34962},{"buffer":0,"byteOffset":1671644,"byteLength":18528,"target":34962},{"buffer":0,"byteOffset":1690172,"byteLength":12,"target":34963},{"buffer":0,"byteOffset":1690184,"byteLength":48,"target":34962},{"buffer":0,"byteOffset":1690232,"byteLength":48,"target":34962},{"buffer":0,"byteOffset":1690280,"byteLength":696,"target":34963},{"buffer":0,"byteOffset":1690976,"byteLength":2760,"target":34962},{"buffer":0,"byteOffset":1693736,"byteLength":2760,"target":34962},{"buffer":0,"byteOffset":1696496,"byteLength":864,"target":34963},{"buffer":0,"byteOffset":1697360,"byteLength":3384,"target":34962},{"buffer":0,"byteOffset":1700744,"byteLength":3384,"target":34962},{"buffer":0,"byteOffset":1704128,"byteLength":108,"target":34963},{"buffer":0,"byteOffset":1704236,"byteLength":288,"target":34962},{"buffer":0,"byteOffset":1704524,"byteLength":288,"target":34962},{"buffer":0,"byteOffset":1704812,"byteLength":144,"target":34963},{"buffer":0,"byteOffset":1704956,"byteLength":576,"target":34962},{"buffer":0,"byteOffset":1705532,"byteLength":576,"target":34962},{"buffer":0,"byteOffset":1706108,"byteLength":1920,"target":34963},{"buffer":0,"byteOffset":1708028,"byteLength":7680,"target":34962},{"buffer":0,"byteOffset":1715708,"byteLength":7680,"target":34962},{"buffer":0,"byteOffset":1723388,"byteLength":2736,"target":34963},{"buffer":0,"byteOffset":1726124,"byteLength":10608,"target":34962},{"buffer":0,"byteOffset":1736732,"byteLength":10608,"target":34962},{"buffer":0,"byteOffset":1747340,"byteLength":2688,"target":34963},{"buffer":0,"byteOffset":1750028,"byteLength":8136,"target":34962},{"buffer":0,"byteOffset":1758164,"byteLength":8136,"target":34962},{"buffer":0,"byteOffset":1766300,"byteLength":4440,"target":34963},{"buffer":0,"byteOffset":1770740,"byteLength":12792,"target":34962},{"buffer":0,"byteOffset":1783532,"byteLength":12792,"target":34962},{"buffer":0,"byteOffset":1796324,"byteLength":108,"target":34963},{"buffer":0,"byteOffset":1796432,"byteLength":360,"target":34962},{"buffer":0,"byteOffset":1796792,"byteLength":360,"target":34962},{"buffer":0,"byteOffset":1797152,"byteLength":672,"target":34963},{"buffer":0,"byteOffset":1797824,"byteLength":1452,"target":34962},{"buffer":0,"byteOffset":1799276,"byteLength":1452,"target":34962},{"buffer":0,"byteOffset":1800728,"byteLength":552,"target":34963},{"buffer":0,"byteOffset":1801280,"byteLength":2016,"target":34962},{"buffer":0,"byteOffset":1803296,"byteLength":2016,"target":34962},{"buffer":0,"byteOffset":1805312,"byteLength":18300,"target":34963},{"buffer":0,"byteOffset":1823612,"byteLength":28428,"target":34962},{"buffer":0,"byteOffset":1852040,"byteLength":28428,"target":34962},{"buffer":0,"byteOffset":1880468,"byteLength":240,"target":34963},{"buffer":0,"byteOffset":1880708,"byteLength":864,"target":34962},{"buffer":0,"byteOffset":1881572,"byteLength":864,"target":34962},{"buffer":0,"byteOffset":1882436,"byteLength":2700,"target":34963},{"buffer":0,"byteOffset":1885136,"byteLength":5616,"target":34962},{"buffer":0,"byteOffset":1890752,"byteLength":5616,"target":34962},{"buffer":0,"byteOffset":1896368,"byteLength":5688,"target":34963},{"buffer":0,"byteOffset":1902056,"byteLength":11064,"target":34962},{"buffer":0,"byteOffset":1913120,"byteLength":11064,"target":34962},{"buffer":0,"byteOffset":1924184,"byteLength":29664,"target":34963},{"buffer":0,"byteOffset":1953848,"byteLength":76200,"target":34962},{"buffer":0,"byteOffset":2030048,"byteLength":76200,"target":34962},{"buffer":0,"byteOffset":2106248,"byteLength":2700,"target":34963},{"buffer":0,"byteOffset":2108948,"byteLength":5616,"target":34962},{"buffer":0,"byteOffset":2114564,"byteLength":5616,"target":34962},{"buffer":0,"byteOffset":2120180,"byteLength":5688,"target":34963},{"buffer":0,"byteOffset":2125868,"byteLength":11064,"target":34962},{"buffer":0,"byteOffset":2136932,"byteLength":11064,"target":34962},{"buffer":0,"byteOffset":2147996,"byteLength":29664,"target":34963},{"buffer":0,"byteOffset":2177660,"byteLength":76200,"target":34962},{"buffer":0,"byteOffset":2253860,"byteLength":76200,"target":34962},{"buffer":0,"byteOffset":2330060,"byteLength":2700,"target":34963},{"buffer":0,"byteOffset":2332760,"byteLength":5616,"target":34962},{"buffer":0,"byteOffset":2338376,"byteLength":5616,"target":34962},{"buffer":0,"byteOffset":2343992,"byteLength":5688,"target":34963},{"buffer":0,"byteOffset":2349680,"byteLength":11064,"target":34962},{"buffer":0,"byteOffset":2360744,"byteLength":11064,"target":34962},{"buffer":0,"byteOffset":2371808,"byteLength":29664,"target":34963},{"buffer":0,"byteOffset":2401472,"byteLength":76200,"target":34962},{"buffer":0,"byteOffset":2477672,"byteLength":76200,"target":34962},{"buffer":0,"byteOffset":2553872,"byteLength":2700,"target":34963},{"buffer":0,"byteOffset":2556572,"byteLength":5616,"target":34962},{"buffer":0,"byteOffset":2562188,"byteLength":5616,"target":34962},{"buffer":0,"byteOffset":2567804,"byteLength":5688,"target":34963},{"buffer":0,"byteOffset":2573492,"byteLength":11064,"target":34962},{"buffer":0,"byteOffset":2584556,"byteLength":11064,"target":34962},{"buffer":0,"byteOffset":2595620,"byteLength":29664,"target":34963},{"buffer":0,"byteOffset":2625284,"byteLength":76200,"target":34962},{"buffer":0,"byteOffset":2701484,"byteLength":76200,"target":34962},{"buffer":0,"byteOffset":2777684,"byteLength":672,"target":34963},{"buffer":0,"byteOffset":2778356,"byteLength":2592,"target":34962},{"buffer":0,"byteOffset":2780948,"byteLength":2592,"target":34962}],"buffers":[{"uri":"scene.bin","byteLength":2783540}],"extensionsUsed":["KHR_materials_emissive_strength","KHR_materials_specular"],"materials":[{"doubleSided":true,"name":"material_0","pbrMetallicRoughness":{"metallicFactor":0,"roughnessFactor":0.6}},{"doubleSided":true,"name":"Material","pbrMetallicRoughness":{"baseColorFactor":[0.00536975,0.00536975,0.00536975,1],"metallicFactor":0,"roughnessFactor":0.348624}},{"doubleSided":true,"name":"rubber","pbrMetallicRoughness":{"baseColorFactor":[0.00442899,0.00442899,0.00442899,1],"metallicFactor":0,"roughnessFactor":0.8115028776997762}},{"doubleSided":true,"name":"ORANGE","pbrMetallicRoughness":{"baseColorFactor":[1,0.17677237630131304,0,1],"roughnessFactor":0.5097432418230702}},{"doubleSided":true,"emissiveFactor":[1,1,1],"extensions":{"KHR_materials_emissive_strength":{"emissiveStrength":6.731963779229526}},"name":"Material.007","pbrMetallicRoughness":{"roughnessFactor":0.20107044046175315}},{"doubleSided":true,"extensions":{"KHR_materials_specular":{"specularColorFactor":[1,1,1],"specularFactor":0.18283696962330534}},"name":"Material.002","pbrMetallicRoughness":{"baseColorFactor":[0.031197341883468028,0.08381020500423883,0.12203903085189301,1],"metallicFactor":0.6291897643575997,"roughnessFactor":0.42173001469236426}},{"doubleSided":true,"name":"ORANGE.001","pbrMetallicRoughness":{"baseColorFactor":[1,0,0,1],"roughnessFactor":0.3714367420462466}},{"doubleSided":true,"name":"ORANGE.002"},{"doubleSided":true,"name":"Material.005","pbrMetallicRoughness":{"baseColorFactor":[0.168218,0.00202728,0.00126597,1],"metallicFactor":0.674658,"roughnessFactor":0.376712}},{"doubleSided":true,"name":"material","pbrMetallicRoughness":{"baseColorFactor":[0.010368,0.010368,0.010368,1],"metallicFactor":0.6983430142460115,"roughnessFactor":0.6731963779229526}},{"doubleSided":true,"name":"Material.001","pbrMetallicRoughness":{"baseColorFactor":[0.261585,0.261585,0.261585,1],"metallicFactor":0.4908832645807761,"roughnessFactor":0.509174}},{"doubleSided":true,"name":"Material.003","pbrMetallicRoughness":{"baseColorFactor":[0.6103297871153055,0.5984457461441949,0.5587308987658133,1],"metallicFactor":0.7863562413767174}},{"alphaMode":"BLEND","doubleSided":true,"name":"GLASS","pbrMetallicRoughness":{"baseColorFactor":[1,1,1,0.059],"metallicFactor":0,"roughnessFactor":0.2}},{"doubleSided":true,"name":"Material.004","pbrMetallicRoughness":{"baseColorFactor":[0.8,0.411198,0.033405,1],"metallicFactor":0,"roughnessFactor":0.5}},{"doubleSided":true,"extensions":{"KHR_materials_specular":{"specularColorFactor":[1,1,1],"specularFactor":0}},"name":"GLASS.001","pbrMetallicRoughness":{"metallicFactor":0.9938159910419528,"roughnessFactor":0.17655031054254064}}],"meshes":[{"name":"Object_0","primitives":[{"attributes":{"NORMAL":1,"POSITION":2},"indices":0,"material":1,"mode":4}]},{"name":"Object_1","primitives":[{"attributes":{"NORMAL":4,"POSITION":5},"indices":3,"material":2,"mode":4}]},{"name":"Object_2","primitives":[{"attributes":{"NORMAL":7,"POSITION":8},"indices":6,"material":3,"mode":4}]},{"name":"Object_3","primitives":[{"attributes":{"NORMAL":10,"POSITION":11},"indices":9,"material":4,"mode":4}]},{"name":"Object_4","primitives":[{"attributes":{"NORMAL":13,"POSITION":14},"indices":12,"material":5,"mode":4}]},{"name":"Object_5","primitives":[{"attributes":{"NORMAL":16,"POSITION":17},"indices":15,"material":3,"mode":4}]},{"name":"Object_6","primitives":[{"attributes":{"NORMAL":19,"POSITION":20},"indices":18,"material":6,"mode":4}]},{"name":"Object_7","primitives":[{"attributes":{"NORMAL":22,"POSITION":23},"indices":21,"material":7,"mode":4}]},{"name":"Object_8","primitives":[{"attributes":{"NORMAL":25,"POSITION":26},"indices":24,"material":8,"mode":4}]},{"name":"Object_9","primitives":[{"attributes":{"NORMAL":28,"POSITION":29},"indices":27,"material":1,"mode":4}]},{"name":"Object_10","primitives":[{"attributes":{"NORMAL":31,"POSITION":32},"indices":30,"material":9,"mode":4}]},{"name":"Object_11","primitives":[{"attributes":{"NORMAL":34,"POSITION":35},"indices":33,"material":10,"mode":4}]},{"name":"Object_12","primitives":[{"attributes":{"NORMAL":37,"POSITION":38},"indices":36,"material":0,"mode":4}]},{"name":"Object_13","primitives":[{"attributes":{"NORMAL":40,"POSITION":41},"indices":39,"material":9,"mode":4}]},{"name":"Object_14","primitives":[{"attributes":{"NORMAL":43,"POSITION":44},"indices":42,"material":2,"mode":4}]},{"name":"Object_15","primitives":[{"attributes":{"NORMAL":46,"POSITION":47},"indices":45,"material":5,"mode":4}]},{"name":"Object_16","primitives":[{"attributes":{"NORMAL":49,"POSITION":50},"indices":48,"material":5,"mode":4}]},{"name":"Object_17","primitives":[{"attributes":{"NORMAL":52,"POSITION":53},"indices":51,"material":1,"mode":4}]},{"name":"Object_18","primitives":[{"attributes":{"NORMAL":55,"POSITION":56},"indices":54,"material":1,"mode":4}]},{"name":"Object_19","primitives":[{"attributes":{"NORMAL":58,"POSITION":59},"indices":57,"material":11,"mode":4}]},{"name":"Object_20","primitives":[{"attributes":{"NORMAL":61,"POSITION":62},"indices":60,"material":12,"mode":4}]},{"name":"Object_21","primitives":[{"attributes":{"NORMAL":64,"POSITION":65},"indices":63,"material":2,"mode":4}]},{"name":"Object_22","primitives":[{"attributes":{"NORMAL":67,"POSITION":68},"indices":66,"material":5,"mode":4}]},{"name":"Object_23","primitives":[{"attributes":{"NORMAL":70,"POSITION":71},"indices":69,"material":1,"mode":4}]},{"name":"Object_24","primitives":[{"attributes":{"NORMAL":73,"POSITION":74},"indices":72,"material":13,"mode":4}]},{"name":"Object_25","primitives":[{"attributes":{"NORMAL":76,"POSITION":77},"indices":75,"material":9,"mode":4}]},{"name":"Object_26","primitives":[{"attributes":{"NORMAL":79,"POSITION":80},"indices":78,"material":2,"mode":4}]},{"name":"Object_27","primitives":[{"attributes":{"NORMAL":82,"POSITION":83},"indices":81,"material":14,"mode":4}]},{"name":"Object_28","primitives":[{"attributes":{"NORMAL":85,"POSITION":86},"indices":84,"material":1,"mode":4}]},{"name":"Object_29","primitives":[{"attributes":{"NORMAL":88,"POSITION":89},"indices":87,"material":2,"mode":4}]},{"name":"Object_30","primitives":[{"attributes":{"NORMAL":91,"POSITION":92},"indices":90,"material":2,"mode":4}]},{"name":"Object_31","primitives":[{"attributes":{"NORMAL":94,"POSITION":95},"indices":93,"material":1,"mode":4}]},{"name":"Object_32","primitives":[{"attributes":{"NORMAL":97,"POSITION":98},"indices":96,"material":5,"mode":4}]},{"name":"Object_33","primitives":[{"attributes":{"NORMAL":100,"POSITION":101},"indices":99,"material":2,"mode":4}]},{"name":"Object_34","primitives":[{"attributes":{"NORMAL":103,"POSITION":104},"indices":102,"material":5,"mode":4}]},{"name":"Object_35","primitives":[{"attributes":{"NORMAL":106,"POSITION":107},"indices":105,"material":1,"mode":4}]},{"name":"Object_36","primitives":[{"attributes":{"NORMAL":109,"POSITION":110},"indices":108,"material":2,"mode":4}]},{"name":"Object_37","primitives":[{"attributes":{"NORMAL":112,"POSITION":113},"indices":111,"material":1,"mode":4}]},{"name":"Object_38","primitives":[{"attributes":{"NORMAL":115,"POSITION":116},"indices":114,"material":1,"mode":4}]},{"name":"Object_39","primitives":[{"attributes":{"NORMAL":118,"POSITION":119},"indices":117,"material":10,"mode":4}]},{"name":"Object_40","primitives":[{"attributes":{"NORMAL":121,"POSITION":122},"indices":120,"material":2,"mode":4}]},{"name":"Object_41","primitives":[{"attributes":{"NORMAL":124,"POSITION":125},"indices":123,"material":1,"mode":4}]},{"name":"Object_42","primitives":[{"attributes":{"NORMAL":127,"POSITION":128},"indices":126,"material":10,"mode":4}]},{"name":"Object_43","primitives":[{"attributes":{"NORMAL":130,"POSITION":131},"indices":129,"material":2,"mode":4}]},{"name":"Object_44","primitives":[{"attributes":{"NORMAL":133,"POSITION":134},"indices":132,"material":1,"mode":4}]},{"name":"Object_45","primitives":[{"attributes":{"NORMAL":136,"POSITION":137},"indices":135,"material":10,"mode":4}]},{"name":"Object_46","primitives":[{"attributes":{"NORMAL":139,"POSITION":140},"indices":138,"material":2,"mode":4}]},{"name":"Object_47","primitives":[{"attributes":{"NORMAL":142,"POSITION":143},"indices":141,"material":1,"mode":4}]},{"name":"Object_48","primitives":[{"attributes":{"NORMAL":145,"POSITION":146},"indices":144,"material":10,"mode":4}]},{"name":"Object_49","primitives":[{"attributes":{"NORMAL":148,"POSITION":149},"indices":147,"material":2,"mode":4}]},{"name":"Object_50","primitives":[{"attributes":{"NORMAL":151,"POSITION":152},"indices":150,"material":1,"mode":4}]}],"nodes":[{"children":[1],"matrix":[1,0,0,0,0,2.220446049250313e-16,-1,0,0,1,2.220446049250313e-16,0,0,0,0,1],"name":"Sketchfab_model"},{"children":[2],"name":"root"},{"children":[3,6,9,11,16,18,21,23,25,28,30,32,34,36,38,41,47,49,51,54,56,59,61,63,65,69,73,77,81],"matrix":[1,0,0,0,0,2.220446049250313e-16,1,0,0,-1,2.220446049250313e-16,0,0,0,0,1],"name":"GLTF_SceneRootNode"},{"children":[4,5],"matrix":[0,-1,0,0,1,0,0,0,0,0,1,0,-4.838459491729736,0.40677666664123535,1.2695367336273193,1],"name":"Circle.078_1"},{"mesh":0,"name":"Object_4"},{"mesh":1,"name":"Object_5"},{"children":[7,8],"matrix":[0,-1,0,0,1,0,0,0,0,0,1,0,-4.838891506195068,0.40677666664123535,1.2695367336273193,1],"name":"Circle.079_2"},{"mesh":2,"name":"Object_7"},{"mesh":3,"name":"Object_8"},{"children":[10],"matrix":[0,-1,0,0,1,0,0,0,0,0,1,0,-4.838459491729736,0.40677666664123535,1.2695367336273193,1],"name":"Circle.080_3"},{"mesh":4,"name":"Object_10"},{"children":[12,13,14,15],"matrix":[0,-1,0,0,1,0,0,0,0,0,1,0,-4.840094566345215,0.4084138572216034,-1.594245195388794,1],"name":"Circle.081_4"},{"mesh":5,"name":"Object_12"},{"mesh":6,"name":"Object_13"},{"mesh":7,"name":"Object_14"},{"mesh":8,"name":"Object_15"},{"children":[17],"matrix":[0.20632220379470623,0.8425698389284848,-0.4975009695963646,0,0.25142218655406245,-0.5370201320493078,-0.8052305644237048,0,-0.9456310233540723,0.04105416302606979,-0.322639928354441,0,-4.335300445556641,0.46618327498435974,-0.9091818332672119,1],"name":"Cylinder.009_5"},{"mesh":9,"name":"Object_17"},{"children":[19,20],"matrix":[2.6854264736175537,0,0,0,0,1,0,0,0,0,0.40507495403289795,0,-4.845170021057129,0.9975937008857727,0.6306954622268677,1],"name":"Cube.002_6"},{"mesh":10,"name":"Object_19"},{"mesh":11,"name":"Object_20"},{"children":[22],"matrix":[0.056508030742406845,0,0,0,0,0,0.056508030742406845,0,0,-0.04206620901823044,0,0,-4.959530830383301,0.927876353263855,1.7020915746688843,1],"name":"DEFENDER.002_9"},{"mesh":12,"name":"Object_22"},{"children":[24],"matrix":[-0.0788580551743503,5.953617829076816e-9,5.953617829076816e-9,0,-5.953617829076816e-9,2.1887507132931288e-16,-0.07885805517435052,0,-4.43204522917319e-9,-0.05870421603322013,1.629369307066261e-16,0,-4.294854640960693,0.832685649394989,-1.1838724613189697,1],"name":"DEFENDER.004_10"},{"mesh":13,"name":"Object_24"},{"children":[26,27],"matrix":[0,-1,0,0,1,0,0,0,0,0,1,0,-4.838800430297852,0.40677666664123535,1.2695367336273193,1],"name":"Circle.055_11"},{"mesh":14,"name":"Object_26"},{"mesh":15,"name":"Object_27"},{"children":[29],"matrix":[0,-1,0,0,1,0,0,0,0,0,1,0,-4.838459491729736,0.40677666664123535,1.2695367336273193,1],"name":"Circle.056_12"},{"mesh":16,"name":"Object_29"},{"children":[31],"matrix":[0,-1,0,0,1,0,0,0,0,0,1,0,-4.838480472564697,0.40677666664123535,1.2695367336273193,1],"name":"Circle.057_13"},{"mesh":17,"name":"Object_31"},{"children":[33],"matrix":[8.429369480200677e-8,-0.9999999999999966,0,0,-0.9999999999999966,-8.429369480200677e-8,0,0,0,0,-1,0,-4.838644504547119,0.40677666664123535,-0.6441163420677185,1],"name":"Circle.058_14"},{"mesh":18,"name":"Object_33"},{"children":[35],"matrix":[0,-1,0,0,1,0,0,0,0,0,1,0,-4.838459491729736,0.40677666664123535,1.2695367336273193,1],"name":"Circle.060_15"},{"mesh":19,"name":"Object_35"},{"children":[37],"matrix":[0,-1,0,0,1,0,0,0,0,0,1,0,-4.838459491729736,0.40677666664123535,1.2695367336273193,1],"name":"Circle.061_16"},{"mesh":20,"name":"Object_37"},{"children":[39,40],"matrix":[0,-1,0,0,1,0,0,0,0,0,1,0,-4.838459491729736,0.40677666664123535,1.2695367336273193,1],"name":"Circle.065_17"},{"mesh":21,"name":"Object_39"},{"mesh":22,"name":"Object_40"},{"children":[42,43,44,45,46],"matrix":[0,-1,0,0,1,0,0,0,0,0,1,0,-4.842757701873779,0.40677666664123535,1.2695367336273193,1],"name":"Circle.068_18"},{"mesh":23,"name":"Object_42"},{"mesh":24,"name":"Object_43"},{"mesh":25,"name":"Object_44"},{"mesh":26,"name":"Object_45"},{"mesh":27,"name":"Object_46"},{"children":[48],"matrix":[0,-1,0,0,1,0,0,0,0,0,1,0,-4.838459491729736,0.40677666664123535,1.2695367336273193,1],"name":"Circle.069_19"},{"mesh":28,"name":"Object_48"},{"children":[50],"matrix":[0,-1,0,0,1,0,0,0,0,0,1,0,-4.838459491729736,0.40677666664123535,1.2695367336273193,1],"name":"Circle.071_20"},{"mesh":29,"name":"Object_50"},{"children":[52,53],"matrix":[0,-1,0,0,1,0,0,0,0,0,1,0,-4.838800430297852,0.40776824951171875,1.2770377397537231,1],"name":"Circle.072_21"},{"mesh":30,"name":"Object_52"},{"mesh":31,"name":"Object_53"},{"children":[55],"matrix":[0,-1,0,0,1,0,0,0,0,0,1,0,-5.17376184463501,0.7949275374412537,-1.1721737384796143,1],"name":"Circle.076_22"},{"mesh":32,"name":"Object_55"},{"children":[57,58],"matrix":[0,-0.7444288730621338,0,0,1,0,0,0,0,0,1,0,-4.837828159332275,0.5448805093765259,1.2695367336273193,1],"name":"Circle.075_23"},{"mesh":33,"name":"Object_57"},{"mesh":34,"name":"Object_58"},{"children":[60],"matrix":[-0.020302975000371676,0.014966228457691327,0,0,0.11236154785094302,0.152428095259256,0,0,0,0,0.18936589360237122,0,-5.474422931671143,0.7603935599327087,-1.0122947692871094,1],"name":"Circle.083_24"},{"mesh":35,"name":"Object_60"},{"children":[62],"matrix":[0,-1,0,0,0.9920108318328857,0,0,0,0,0,1,0,-4.838459491729736,0.3991907835006714,1.2695367336273193,1],"name":"Circle.077_27"},{"mesh":36,"name":"Object_62"},{"children":[64],"matrix":[0,-1,0,0,38.913543701171875,0,0,0,0,0,1,0,-4.838800430297852,0.4103677272796631,-0.6546533703804016,1],"name":"Cylinder.007_28"},{"mesh":37,"name":"Object_64"},{"children":[66,67,68],"matrix":[1.0997480703878182e-9,0.036901421844959224,-1.0997481031628647e-9,0,1.1561341118179611e-9,1.1561340773624806e-9,0.03879342228174206,0,0.0417334288358688,-1.2437531375772338e-9,-1.243753100510503e-9,0,-4.9630818367004395,0.3714073896408081,0.9293972849845886,1],"name":"Plane.022_29"},{"mesh":38,"name":"Object_66"},{"mesh":39,"name":"Object_67"},{"mesh":40,"name":"Object_68"},{"children":[70,71,72],"matrix":[1.0997480703878182e-9,0.036901421844959224,-1.0997481031628647e-9,0,1.1561341118179611e-9,1.1561340773624806e-9,0.03879342228174206,0,0.0417334288358688,-1.2437531375772338e-9,-1.243753100510503e-9,0,-4.9630818367004395,0.3714073896408081,-1.0100061893463135,1],"name":"Plane.025_30"},{"mesh":41,"name":"Object_70"},{"mesh":42,"name":"Object_71"},{"mesh":43,"name":"Object_72"},{"children":[74,75,76],"matrix":[-1.0997480703878182e-9,0.036901421844959224,-1.0997481031628647e-9,0,-1.1561341118179611e-9,1.1561340773624806e-9,0.03879342228174206,0,-0.0417334288358688,-1.2437531375772338e-9,-1.243753100510503e-9,0,-4.712932586669922,0.3714073896408081,0.9293972849845886,1],"name":"Plane.029_31"},{"mesh":44,"name":"Object_74"},{"mesh":45,"name":"Object_75"},{"mesh":46,"name":"Object_76"},{"children":[78,79,80],"matrix":[-1.0997480703878182e-9,0.036901421844959224,-1.0997481031628647e-9,0,-1.1561341118179611e-9,1.1561340773624806e-9,0.03879342228174206,0,-0.0417334288358688,-1.2437531375772338e-9,-1.243753100510503e-9,0,-4.712932586669922,0.3714073896408081,-1.0100061893463135,1],"name":"Plane.030_32"},{"mesh":47,"name":"Object_78"},{"mesh":48,"name":"Object_79"},{"mesh":49,"name":"Object_80"},{"children":[82],"matrix":[3.220120348146338e-8,-1.0804930925369254,-3.220120444113403e-8,0,-0.000001093722208533189,0.000001093722175937728,-36.699226379394496,0,1.0804930925369254,3.220120444113403e-8,-3.220120348146338e-8,0,-4.838800430297852,0.42401933670043945,0.6703467965126038,1],"name":"Cylinder.008_33"},{"mesh":50,"name":"Object_82"}],"scene":0,"scenes":[{"name":"Sketchfab_Scene","nodes":[0]}]}